<svg preserveAspectRatio="none" width="100%" height="100%" overflow="visible" style="display: block;" viewBox="0 0 55 35" fill="none" xmlns="http://www.w3.org/2000/svg">
<g id="Container">
<path id="Icon" d="M12.5 35C10.4167 35 8.64583 34.2708 7.1875 32.8125C5.72917 31.3542 5 29.5833 5 27.5H0V5C0 3.625 0.489583 2.44792 1.46875 1.46875C2.44792 0.489583 3.625 0 5 0H40L55 15V27.5H50C50 29.5833 49.2708 31.3542 47.8125 32.8125C46.3542 34.2708 44.5833 35 42.5 35C40.4167 35 38.6458 34.2708 37.1875 32.8125C35.7292 31.3542 35 29.5833 35 27.5H20C20 29.5833 19.2708 31.3542 17.8125 32.8125C16.3542 34.2708 14.5833 35 12.5 35V35M35 12.5H45L37.5 5H35V12.5V12.5M20 12.5H30V5H20V12.5V12.5M5 12.5H15V5H5V12.5V12.5M12.5 30.625C13.375 30.625 14.1146 30.3229 14.7188 29.7188C15.3229 29.1146 15.625 28.375 15.625 27.5C15.625 26.625 15.3229 25.8854 14.7188 25.2812C14.1146 24.6771 13.375 24.375 12.5 24.375C11.625 24.375 10.8854 24.6771 10.2812 25.2812C9.67708 25.8854 9.375 26.625 9.375 27.5C9.375 28.375 9.67708 29.1146 10.2812 29.7188C10.8854 30.3229 11.625 30.625 12.5 30.625V30.625M42.5 30.625C43.375 30.625 44.1146 30.3229 44.7188 29.7188C45.3229 29.1146 45.625 28.375 45.625 27.5C45.625 26.625 45.3229 25.8854 44.7188 25.2812C44.1146 24.6771 43.375 24.375 42.5 24.375C41.625 24.375 40.8854 24.6771 40.2812 25.2812C39.6771 25.8854 39.375 26.625 39.375 27.5C39.375 28.375 39.6771 29.1146 40.2812 29.7188C40.8854 30.3229 41.625 30.625 42.5 30.625V30.625M5 22.5H7C7.70833 21.75 8.52083 21.1458 9.4375 20.6875C10.3542 20.2292 11.375 20 12.5 20C13.625 20 14.6458 20.2292 15.5625 20.6875C16.4792 21.1458 17.2917 21.75 18 22.5H37C37.7083 21.75 38.5208 21.1458 39.4375 20.6875C40.3542 20.2292 41.375 20 42.5 20C43.625 20 44.6458 20.2292 45.5625 20.6875C46.4792 21.1458 47.2917 21.75 48 22.5H50V17.5H5V22.5V22.5M50 17.5V17.5H48C47.2917 17.5 46.4792 17.5 45.5625 17.5C44.6458 17.5 43.625 17.5 42.5 17.5C41.375 17.5 40.3542 17.5 39.4375 17.5C38.5208 17.5 37.7083 17.5 37 17.5H18C17.2917 17.5 16.4792 17.5 15.5625 17.5C14.6458 17.5 13.625 17.5 12.5 17.5C11.375 17.5 10.3542 17.5 9.4375 17.5C8.52083 17.5 7.70833 17.5 7 17.5H5V17.5H50V17.5" fill="var(--fill-0, #F5A623)"/>
</g>
</svg>
